<svg width="33" height="28" viewBox="0 0 33 28" fill="none" xmlns="http://www.w3.org/2000/svg">
<path d="M27.4808 1.3C26.1386 0.455879 24.5864 0.00546285 23.0008 0C21.6316 0.0166014 20.2854 0.353569 19.0698 0.983917C17.8543 1.61427 16.8032 2.52048 16.0008 3.63C15.1984 2.52048 14.1473 1.61427 12.9318 0.983917C11.7162 0.353569 10.37 0.0166014 9.00081 0C7.415 0.00384876 5.86235 0.454392 4.5208 1.3C2.41546 2.70481 0.91026 4.84485 0.299884 7.30114C-0.310491 9.75744 0.0179225 12.3531 1.22081 14.58C3.22081 18.37 11.8108 24.96 14.9008 27.26C15.2234 27.5029 15.617 27.6329 16.0208 27.63C16.4242 27.63 16.8168 27.5003 17.1408 27.26C20.2308 24.96 28.7808 18.37 30.8108 14.58C32.0108 12.3497 32.3346 9.75151 31.7186 7.29487C31.1026 4.83823 29.5912 2.70024 27.4808 1.3ZM29.4808 13.93C27.9608 16.77 21.6308 22.09 16.2208 26.13C16.1482 26.1827 16.0606 26.2107 15.9708 26.21C15.8807 26.213 15.7924 26.1848 15.7208 26.13C10.3008 22.13 3.9708 16.77 2.4608 13.93C1.42747 12.0301 1.13973 9.81311 1.65383 7.71236C2.16792 5.6116 3.44689 3.77804 5.2408 2.57C6.35165 1.86905 7.63731 1.49479 8.95081 1.49C10.0932 1.49454 11.2183 1.76858 12.2349 2.28987C13.2514 2.81115 14.1305 3.56496 14.8008 4.49L15.9708 6.05L17.1308 4.49C17.8032 3.56477 18.6842 2.81099 19.7023 2.28977C20.7204 1.76855 21.8471 1.49456 22.9908 1.49C24.3043 1.49479 25.59 1.86905 26.7008 2.57C28.4947 3.77804 29.7737 5.6116 30.2878 7.71236C30.8019 9.81311 30.5141 12.0301 29.4808 13.93Z" fill="#4D4D4F"/>
</svg>
