<svg width="31" height="31" viewBox="0 0 31 31" fill="none" xmlns="http://www.w3.org/2000/svg">
<path d="M30.4164 11.8305C29.6827 8.76523 28.0273 5.99841 25.6732 3.90266C23.319 1.80691 20.3792 0.482895 17.2496 0.108934C14.12 -0.265026 10.9509 0.329025 8.16927 1.81109C5.38759 3.29315 3.12689 5.59203 1.69161 8.39813C0.256331 11.2042 -0.284598 14.3828 0.141712 17.5057C0.568022 20.6286 1.94107 23.5458 4.07595 25.8646C6.21082 28.1833 9.00498 29.7921 12.0821 30.4744C15.1592 31.1567 18.3716 30.8796 21.2864 29.6805C21.7094 29.497 22.1827 29.4652 22.6264 29.5905L26.9664 30.8305C27.1829 30.901 27.4088 30.9381 27.6364 30.9405C27.9718 30.9389 28.3027 30.8636 28.6058 30.72C28.9088 30.5764 29.1767 30.368 29.3904 30.1095C29.604 29.851 29.7583 29.5487 29.8423 29.224C29.9263 28.8994 29.9379 28.5602 29.8764 28.2305L28.9664 23.5805C28.9047 23.1521 28.9781 22.7152 29.1764 22.3305C30.8235 19.0888 31.2631 15.3667 30.4164 11.8305ZM27.5764 21.5705C27.1911 22.304 27.0609 23.1449 27.2064 23.9605L28.0864 28.6305C28.1003 28.7129 28.093 28.7976 28.065 28.8763C28.037 28.9551 27.9893 29.0254 27.9264 29.0805C27.8653 29.1396 27.7894 29.1811 27.7066 29.2005C27.6239 29.2198 27.5374 29.2164 27.4564 29.1905L23.1564 27.8305C22.833 27.7271 22.4959 27.6732 22.1564 27.6705C21.6347 27.6769 21.119 27.7821 20.6364 27.9805C17.6804 29.1872 14.3943 29.317 11.3523 28.3473C8.31028 27.3776 5.70563 25.3699 3.9933 22.6751C2.28098 19.9802 1.56984 16.7694 1.98409 13.6036C2.39834 10.4377 3.91164 7.51798 6.25969 5.35443C8.60774 3.19087 11.6413 1.92099 14.8304 1.7666C18.0195 1.61222 21.1615 2.58314 23.7076 4.50978C26.2536 6.43642 28.0419 9.1963 28.76 12.3073C29.4781 15.4184 29.0804 18.6829 27.6364 21.5305L27.5764 21.5705Z" fill="#4D4D4F"/>
</svg>
