<svg width="36" height="31" viewBox="0 0 36 31" fill="none" xmlns="http://www.w3.org/2000/svg">
<path d="M35.8592 0.490049C35.7847 0.341981 35.6704 0.217656 35.529 0.131082C35.3877 0.044509 35.2249 -0.000873613 35.0592 4.74961e-05H0.899194C0.715053 -0.00186527 0.534965 0.0540387 0.384271 0.159883C0.233577 0.265728 0.119874 0.416179 0.0591978 0.590048C-0.0065652 0.762271 -0.0178322 0.950537 0.0268797 1.12938C0.0715916 1.30823 0.170125 1.46903 0.309198 1.59005L12.3092 11.86V30.05C12.3103 30.2389 12.3708 30.4225 12.4821 30.5751C12.5933 30.7276 12.7497 30.8413 12.9292 30.9C13.022 30.9143 13.1164 30.9143 13.2092 30.9C13.3489 30.9 13.4867 30.8675 13.6117 30.805C13.7367 30.7426 13.8454 30.6518 13.9292 30.5401L35.7492 1.40005C35.8464 1.27167 35.9078 1.11978 35.9271 0.959909C35.9465 0.800036 35.923 0.637899 35.8592 0.490049ZM3.32922 1.81005H31.1292L13.3592 10.38L3.32922 1.81005ZM14.1292 12L32.1292 3.31005L14.1292 27.31V12Z" fill="#4D4D4F"/>
</svg>
